<svg xmlns="http://www.w3.org/2000/svg" viewBox="0 0 32 32" alt="Overlay schließen" class="_icon_mhdv8_1"><path d="M16 0C7.2 0 0 7.2 0 16s7.2 16 16 16 16-7.2 16-16S24.8 0 16 0zm9.3 25.3c-2.5 2.5-5.8 3.8-9.3 3.8s-6.8-1.4-9.3-3.8c-2.5-2.5-3.8-5.8-3.8-9.3s1.4-6.8 3.8-9.3c2.5-2.5 5.8-3.8 9.3-3.8s6.8 1.4 9.3 3.8 3.8 5.8 3.8 9.3-1.3 6.8-3.8 9.3z"></path><path d="M22.3 9.7c-.6-.6-1.5-.6-2 0L16 14l-4.3-4.3c-.6-.6-1.5-.6-2 0-.6.6-.6 1.5 0 2L14 16l-4.3 4.3c-.6.6-.6 1.5 0 2 .3.3.6.4 1 .4s.7-.1 1-.4L16 18l4.3 4.3c.3.3.6.4 1 .4s.7-.1 1-.4c.6-.6.6-1.5 0-2L18 16l4.3-4.3c.6-.5.6-1.4 0-2z"></path></svg>